<?xml version="1.0" encoding="UTF-8" standalone="no"?>
<!DOCTYPE svg PUBLIC "-//W3C//DTD SVG 1.1//EN" "http://www.w3.org/Graphics/SVG/1.1/DTD/svg11.dtd">
<svg width="100%" height="100%" viewBox="0 0 512 512" version="1.1" xmlns="http://www.w3.org/2000/svg" xmlns:xlink="http://www.w3.org/1999/xlink" xml:space="preserve" xmlns:serif="http://www.serif.com/" style="fill-rule:evenodd;clip-rule:evenodd;stroke-linejoin:round;stroke-miterlimit:2;">
    <g transform="matrix(0.726237,0,0,0.726237,70.0834,70.0834)">
        <path d="M299.452,386.371C271.468,395.709 240.6,395.707 212.536,386.367C204.673,383.749 196.182,388.002 193.567,395.862C190.951,403.722 195.202,412.216 203.063,414.832C220.153,420.52 238.094,423.363 256.03,423.363C273.966,423.363 291.898,420.517 308.948,414.828C316.806,412.206 321.051,403.71 318.428,395.851C315.807,387.994 307.312,383.751 299.452,386.371Z" style="fill-rule:nonzero;"/>
        <path d="M430.736,97.999C424.352,52.209 385.033,16.067 336.334,16.067L319.2,16.067L319.2,15C319.2,6.716 312.484,-0 304.2,-0L207.8,-0C199.516,-0 192.8,6.716 192.8,15L192.8,16.066L175.667,16.066C127.376,16.066 88.003,51.704 81.307,97.988C53.189,104.387 32.134,129.572 32.134,159.599L32.134,288.133C32.134,329.239 65.617,345.992 80.826,349.607C87.694,442.146 165.397,512 256,512C348.396,512 424.358,440.295 431.167,349.611C470.591,340.251 479.866,304.483 479.866,288.134L479.866,159.6C479.867,129.588 458.832,104.413 430.736,97.999ZM319.2,46.066L336.333,46.066C378.775,46.066 396.308,80.767 399.953,96.4L319.2,96.4L319.2,46.066ZM222.8,30L289.2,30L289.2,96.4L222.8,96.4L222.8,30ZM175.667,46.066L192.8,46.066L192.8,96.4L112.109,96.4C121.838,55.644 158.76,46.066 175.667,46.066ZM256,482C181.965,482 118.68,425.914 111.096,351.333L185.066,351.333C203.473,351.333 221.483,343.874 234.478,330.869C234.555,330.792 234.631,330.714 234.707,330.635C240.35,325.115 248.092,321.956 256,321.956C263.91,321.956 271.652,325.116 277.294,330.636C277.369,330.714 277.445,330.792 277.523,330.869C290.518,343.874 308.528,351.333 326.936,351.333L400.899,351.333C393.366,424.634 331.257,482 256,482ZM449.867,288.134C449.867,306.698 434.736,321.333 416.667,321.333L326.936,321.333C316.544,321.333 306.378,317.172 298.988,309.905C298.907,309.82 298.825,309.736 298.742,309.652C287.496,298.406 271.918,291.956 256.001,291.956C240.085,291.956 224.507,298.406 213.261,309.652C213.178,309.735 213.095,309.819 213.014,309.904C205.623,317.172 195.457,321.333 185.066,321.333L95.333,321.333C77.321,321.333 62.133,306.761 62.133,288.134L62.133,159.6C62.133,141.294 77.027,126.401 95.333,126.401L416.666,126.401C434.973,126.401 449.866,141.295 449.866,159.6L449.866,288.134L449.867,288.134Z" style="fill-rule:nonzero;"/>
    </g>
    <g id="right-arrow" transform="matrix(0.173496,-0.173496,0.173496,0.173496,442.59,74.199)">
        <g transform="matrix(1,0,0,1,-256,-256)">
            <clipPath id="_clip1">
                <rect x="0" y="0" width="512" height="512"/>
            </clipPath>
            <g clip-path="url(#_clip1)">
                <g>
                    <g>
                        <path d="M506.134,241.843C506.128,241.837 506.123,241.83 506.116,241.824L401.612,137.824C393.783,130.033 381.12,130.062 373.327,137.892C365.535,145.721 365.565,158.384 373.394,166.176L443.558,236L20,236C8.954,236 0,244.954 0,256C0,267.046 8.954,276 20,276L443.557,276L373.395,345.824C365.566,353.616 365.536,366.279 373.328,374.108C381.121,381.939 393.785,381.966 401.613,374.176L506.117,270.176C506.123,270.17 506.128,270.163 506.135,270.157C513.968,262.339 513.943,249.635 506.134,241.843Z" style="fill-rule:nonzero;"/>
                    </g>
                </g>
            </g>
        </g>
    </g>
    <g id="right-arrow1" serif:id="right-arrow" transform="matrix(-0.173496,-0.173496,0.173496,-0.173496,72.4013,74.199)">
        <g transform="matrix(1,0,0,1,-256,-256)">
            <clipPath id="_clip2">
                <rect x="0" y="0" width="512" height="512"/>
            </clipPath>
            <g clip-path="url(#_clip2)">
                <g>
                    <g>
                        <path d="M506.134,241.843C506.128,241.837 506.123,241.83 506.116,241.824L401.612,137.824C393.783,130.033 381.12,130.062 373.327,137.892C365.535,145.721 365.565,158.384 373.394,166.176L443.558,236L20,236C8.954,236 0,244.954 0,256C0,267.046 8.954,276 20,276L443.557,276L373.395,345.824C365.566,353.616 365.536,366.279 373.328,374.108C381.121,381.939 393.785,381.966 401.613,374.176L506.117,270.176C506.123,270.17 506.128,270.163 506.135,270.157C513.968,262.339 513.943,249.635 506.134,241.843Z" style="fill-rule:nonzero;"/>
                    </g>
                </g>
            </g>
        </g>
    </g>
    <g id="right-arrow2" serif:id="right-arrow" transform="matrix(-0.173496,0.173496,-0.173496,-0.173496,72.4013,444.387)">
        <g transform="matrix(1,0,0,1,-256,-256)">
            <clipPath id="_clip3">
                <rect x="0" y="0" width="512" height="512"/>
            </clipPath>
            <g clip-path="url(#_clip3)">
                <g>
                    <g>
                        <path d="M506.134,241.843C506.128,241.837 506.123,241.83 506.116,241.824L401.612,137.824C393.783,130.033 381.12,130.062 373.327,137.892C365.535,145.721 365.565,158.384 373.394,166.176L443.558,236L20,236C8.954,236 0,244.954 0,256C0,267.046 8.954,276 20,276L443.557,276L373.395,345.824C365.566,353.616 365.536,366.279 373.328,374.108C381.121,381.939 393.785,381.966 401.613,374.176L506.117,270.176C506.123,270.17 506.128,270.163 506.135,270.157C513.968,262.339 513.943,249.635 506.134,241.843Z" style="fill-rule:nonzero;"/>
                    </g>
                </g>
            </g>
        </g>
    </g>
    <g id="right-arrow3" serif:id="right-arrow" transform="matrix(0.173496,0.173496,-0.173496,0.173496,442.59,444.387)">
        <g transform="matrix(1,0,0,1,-256,-256)">
            <clipPath id="_clip4">
                <rect x="0" y="0" width="512" height="512"/>
            </clipPath>
            <g clip-path="url(#_clip4)">
                <g>
                    <g>
                        <path d="M506.134,241.843C506.128,241.837 506.123,241.83 506.116,241.824L401.612,137.824C393.783,130.033 381.12,130.062 373.327,137.892C365.535,145.721 365.565,158.384 373.394,166.176L443.558,236L20,236C8.954,236 0,244.954 0,256C0,267.046 8.954,276 20,276L443.557,276L373.395,345.824C365.566,353.616 365.536,366.279 373.328,374.108C381.121,381.939 393.785,381.966 401.613,374.176L506.117,270.176C506.123,270.17 506.128,270.163 506.135,270.157C513.968,262.339 513.943,249.635 506.134,241.843Z" style="fill-rule:nonzero;"/>
                    </g>
                </g>
            </g>
        </g>
    </g>
</svg>
